PathFileType	4	(X/Y/Z)	C:/Users/beibeiliu/ov580/test_trc/User2\sequence.23_training_dense_left.trc
DataRate	CameraRate	NumFrames	NumMarkers	Units	OrigDataRate	OrigDataStartFrame	OrigNumFrames
120	120	23	19	mm	120	1	257
Frame#	Time	ThumbCMC			ThumbMCP			ThumbIP			ThumbTip			IndexMCP			IndexPIP			IndexTip			MiddleMCP			MiddlePIP			MiddleTip			RingMCP			RingPIP			RingTip			PinkyMCP			PinkyPIP			PinkyTip			BackHand1			BackHand2			BackHand3	
		X0	Y0	Z0	X1	Y1	Z1	X2	Y2	Z2	X3	Y3	Z3	X4	Y4	Z4	X5	Y5	Z5	X6	Y6	Z6	X7	Y7	Z7	X8	Y8	Z8	X9	Y9	Z9	X10	Y10	Z10	X11	Y11	Z11	X12	Y12	Z12	X13	Y13	Z13	X14	Y14	Z14	X15	Y15	Z15	X16	Y16	Z16	X17	Y17	Z17	X18	Y18	Z18	
0	0	-184.313	-31.1557	55.7177	-152.74	-32.1531	32.5228	-123.728	-45.7056	12.287	-100.32	-61.1504	4.43617	-158.145	-86.5928	0.919543	-144.71	-88.2474	-22.4211	-126.617	-94.6703	-49.8734	-130.889	-100.684	15.4591	-103.818	-102.719	-1.12653	-74.8751	-102.765	-16.1341	-109.979	-85.1546	33.7104	-97.1927	-58.5396	35.839	-123.74	-41.8669	56.2055	-103.586	-79.8843	60.2652	-105.017	-49.246	62.6284	-136.69	-42.6832	72.3031	-161.375	-99.0539	72.7253	-183.166	-84.1444	103.677	-193.376	-75.1015	65.3344	
1	0.00833333	-183.196	-33.7964	56.4429	-154.048	-33.1022	31.653	-125.483	-47.7616	18.1286	-100.553	-60.4708	7.96865	-155.791	-88.5369	1.81977	-140.409	-92.5128	-23.0831	-122.23	-96.907	-47.1355	-127.283	-99.9488	15.4002	-104.523	-100.879	1.74057	-73.2924	-101.649	-13.8732	-107.309	-86.4936	39.2303	-97.0421	-56.7011	36.5625	-125.193	-37.212	58.9259	-106.106	-80.9748	61.8279	-106.879	-43.8655	64.8936	-134.348	-38.6681	76.1699	-159.553	-97.5223	78.8399	-181.938	-85.4237	102.454	-191.404	-75.4679	64.8225	
2	0.0166667	-184.041	-32.5038	58.7879	-156.107	-31.2898	34.8761	-123.363	-47.9073	15.3128	-103.73	-56.7474	11.2644	-155.78	-86.3471	-2.4288	-140.154	-91.5511	-19.5281	-126.027	-94.1325	-44.3497	-128.349	-100.705	20.4739	-102.775	-100.347	2.63727	-76.0797	-100.119	-14.0649	-111.629	-85.4779	37.3876	-97.5025	-52.5506	38.6018	-121.034	-34.389	58.8168	-103.205	-80.0601	62.3782	-104.782	-44.8627	65.1632	-133.506	-40.5183	75.5336	-158.636	-98.1741	80.1819	-180.463	-83.6949	103.16	-191.285	-74.9114	69.3038	
3	0.025	-183.004	-32.9513	54.6188	-154.608	-33.023	35.3542	-125.038	-46.1682	17.7837	-104.041	-54.8391	10.9573	-155.051	-86.5268	0.376707	-141.866	-89.48	-24.1035	-123.991	-95.4873	-39.6392	-131.671	-99.2955	19.8528	-101.949	-100.694	1.74141	-74.9192	-100.861	-12.3204	-110.417	-84.6565	36.048	-95.7246	-54.7871	38.2344	-115.36	-33.2746	53.4167	-107.781	-80.9447	60.6047	-105.646	-45.9705	60.5984	-133.6	-38.1701	75.1852	-158.162	-97.1567	77.3607	-178.044	-85.8051	105.509	-191.272	-74.8375	66.9633	
4	0.0333333	-181.365	-29.7324	61.747	-152.454	-31.457	34.5616	-124.47	-42.5677	15.9565	-102.547	-55.5589	8.14628	-160.744	-80.5345	0.448322	-145.965	-84.751	-20.1448	-130.332	-89.1078	-43.5436	-131.523	-98.3573	12.9973	-104.438	-98.3664	-3.29782	-80.8856	-100.329	-15.5903	-110.307	-86.9169	38.9965	-95.758	-55.4184	36.1879	-115.118	-33.651	56.8573	-103.98	-80.9444	62.3317	-105.393	-49.1829	59.4725	-133.179	-39.0939	75.075	-161.111	-97.4788	77.2188	-182.132	-82.5835	100.442	-190.89	-71.2491	67.5556	
5	0.0416667	-176.27	-27.0266	60.6924	-149.991	-28.1032	37.1145	-123.277	-46.0935	17.0174	-102.823	-56.7937	6.08918	-164.446	-71.7391	-0.683272	-145.631	-79.4999	-24.1165	-133.941	-81.2207	-45.6519	-135.595	-95.9386	13.2462	-112.498	-97.2511	-5.37176	-84.5567	-101.215	-18.4385	-114.233	-88.7735	36.338	-94.7103	-60.3234	38.2757	-108.548	-37.6399	57.9244	-108.964	-85.9434	57.5626	-103.784	-54.9876	59.4541	-129.999	-43.491	76.5982	-168.877	-92.0495	75.078	-183.546	-79.9951	101.961	-194.22	-62.2692	66.3129	
6	0.05	-170.745	-18.9107	62.3792	-143.512	-23.3008	37.1685	-121.1	-40.9499	20.4147	-104.585	-55.907	6.67805	-163.524	-64.8898	-4.87772	-152.809	-64.3813	-24.6409	-137.891	-71.8112	-47.9703	-142.664	-90.7008	8.13485	-122.504	-92.0453	-9.94336	-93.6479	-98.8194	-28.452	-124.514	-86.4628	30.0703	-97.8088	-66.1273	35.7276	-108.75	-37.9467	60.2387	-113.558	-90.8033	54.6937	-105.336	-57.4501	62.7386	-129.608	-46.6909	78.2636	-173.575	-85.6638	71.1917	-186.757	-76.358	101.856	-194.971	-55.6079	68.924	
7	0.0583333	-164.249	-11.6569	69.9028	-137.548	-18.1707	42.0898	-118.516	-39.9811	14.7865	-103.82	-53.4765	1.71463	-167.35	-51.6047	-5.41738	-153.923	-52.3225	-30.42	-142.711	-59.9786	-50.5452	-150.042	-80.9512	2.81632	-128.734	-85.839	-14.9982	-100.986	-91.159	-37.9788	-128.836	-83.2532	25.656	-99.6203	-69.751	36.7196	-104.059	-46.1576	61.9466	-118.523	-92.1132	47.7635	-106.35	-65.2065	58.7751	-131.335	-49.739	78.9134	-177.5	-84.7941	69.9736	-188.69	-72.1397	98.1541	-195.211	-44.2295	67.5123	
8	0.0666667	-155.292	-10.5793	71.3295	-131.901	-19.1384	43.2759	-117.912	-38.9619	18.8093	-106.59	-56.4024	-0.638888	-168.158	-38.7143	-2.97105	-155.088	-40.8923	-31.0779	-143.266	-42.1734	-56.6783	-157.383	-70.27	1.53994	-132.16	-80.9043	-20.7935	-109.82	-86.4797	-40.2986	-131.643	-81.3036	22.4687	-102.853	-71.8208	33.8212	-105.181	-47.2942	62.5859	-129.274	-94.6036	43.6864	-108.637	-70.2723	55.3426	-127.889	-52.6978	78.6309	-181.293	-76.0229	64.5262	-189.572	-66.4909	99.6881	-189.816	-36.5176	70.8211	
9	0.075	-149.107	-10.0394	76.8871	-124.9	-15.3687	43.6132	-113.48	-33.558	16.6659	-107.097	-53.12	1.88738	-165.228	-27.2082	-2.55774	-155.887	-31.4376	-24.9433	-146.213	-33.4791	-52.8808	-159.443	-59.9673	-2.45488	-139.485	-68.2063	-23.946	-117.632	-78.5598	-43.7673	-135.534	-74.5944	18.0783	-106.619	-74.7499	30.7397	-105.324	-53.5728	62.0755	-138.117	-88.9356	37.9854	-111.466	-72.1988	55.8019	-127.913	-55.3835	76.6749	-185.123	-71.3271	63.9695	-191.288	-61.7234	94.8847	-186.969	-28.0309	73.3383	
10	0.0833333	-143.719	-8.00194	78.0858	-122.262	-15.7868	48.2288	-113.591	-34.2583	17.6934	-108.387	-50.7174	-2.84163	-163.056	-20.7204	-0.272136	-153.528	-19.3658	-23.3709	-145.625	-23.8094	-52.7701	-161.392	-52.1994	-3.38246	-143.924	-59.9722	-23.8925	-124.236	-74.3097	-45.5673	-141.747	-76.2164	19.5174	-111.234	-74.5806	29.0996	-109.371	-55.532	63.2849	-143.298	-85.6797	35.7381	-114.728	-74.5124	53.8266	-128.484	-58.4643	77.4254	-187.806	-64.0347	63.9327	-191.004	-56.279	94.3845	-184.936	-24.0676	75.5907	
11	0.0916667	-138.855	-11.7627	85.0563	-116.187	-14.735	51.0798	-111.038	-31.5654	18.7889	-111.524	-49.4015	0.664161	-160.132	-10.2771	2.72589	-151.192	-9.68955	-22.7422	-145.294	-12.5655	-46.6692	-164.624	-42.1807	-0.257789	-148.047	-53.8142	-26.4637	-128.587	-65.616	-51.6337	-148.608	-69.6711	17.4953	-117.082	-71.4667	25.4822	-115.336	-60.8021	60.5144	-144.138	-80.6407	31.931	-120.658	-75.986	49.7896	-130.813	-61.4399	80.1459	-191.419	-56.0369	61.7945	-193.975	-52.8043	96.9169	-178.686	-16.7145	76.7565	
12	0.1	-137.823	-12.4724	83.4974	-118.132	-20.2349	54.5522	-109.929	-31.8463	19.5936	-110.834	-45.9348	-2.40719	-157.522	-2.53352	5.01902	-148.927	0.0809963	-18.523	-143.609	-2.20589	-42.8239	-164.502	-33.1892	-1.13387	-150.268	-45.7059	-27.8993	-136.546	-57.3825	-50.3904	-151.911	-66.6576	14.9246	-119.686	-68.3471	25.8529	-123.646	-58.3988	59.814	-153.195	-80.7959	31.6848	-124.903	-77.6691	47.9337	-133.022	-59.5419	78.1906	-189.285	-46.7492	60.9397	-192.938	-46.552	99.6515	-176.805	-15.1494	81.8337	
13	0.108333	-132.179	-14.241	89.0021	-114.224	-20.2998	53.1294	-112.038	-32.1678	18.5448	-113.204	-45.6453	-3.66098	-157.587	-0.700766	10.9998	-148.917	3.54257	-13.0726	-141.404	4.35617	-43.8106	-165.984	-27.839	-1.53199	-152.168	-36.6078	-27.3368	-139.536	-47.5672	-50.8626	-153.29	-60.1555	12.4646	-126.729	-69.1964	21.5341	-127.938	-57.0445	56.2487	-153.967	-74.4072	27.3915	-127.839	-75.1729	49.2253	-136.356	-58.1006	73.9545	-190.454	-42.3795	61.767	-194.936	-42.0474	97.9277	-176.292	-11.3217	86.4784	
14	0.116667	-129.535	-15.5305	90.1722	-112.98	-23.1788	57.5318	-111.2	-32.2196	20.8684	-115.866	-43.0509	-1.93997	-153.781	3.73372	11.1657	-145.982	6.5634	-11.8158	-138.485	8.91303	-39.8801	-166.128	-20.1593	3.47278	-154.121	-29.0608	-25.2023	-141.645	-43.9899	-55.5446	-157.723	-55.053	11.8603	-130.072	-67.7677	20.7604	-131.116	-55.5742	52.8909	-159.681	-75.2011	26.231	-133.162	-76.4803	43.0171	-140.514	-57.1524	74.3065	-194.557	-40.0734	65.1007	-192.696	-39.8258	98.0488	-173.664	-10.6572	86.1798	
15	0.125	-127.612	-19.7176	90.6844	-114.78	-25.8706	55.5294	-115.642	-31.2628	17.1006	-117.176	-41.4061	-2.95221	-148.451	8.53155	15.7416	-139.265	13.0346	-8.57455	-136.93	14.3923	-39.8343	-167.831	-16.9309	5.27817	-154.149	-23.0965	-27.3133	-146.199	-34.5682	-53.2326	-162.667	-51.1755	11.474	-134.469	-64.502	16.6932	-134.75	-55.5733	51.884	-164.92	-71.4971	25.0361	-136.553	-71.4976	41.0541	-142.493	-52.5444	68.8762	-192.024	-33.5813	62.9387	-193.415	-37.2587	99.0477	-170.33	-6.29998	86.1513	
16	0.133333	-125.935	-22.4376	92.5447	-114.356	-26.0703	52.6286	-117.003	-31.5793	19.615	-125.862	-37.8574	-6.61896	-145.839	10.5343	19.5551	-137.458	14.0072	-9.54028	-132.908	19.2735	-34.2219	-167.761	-13.2104	7.56583	-158.643	-20.0518	-25.259	-149.792	-29.3704	-53.232	-161.884	-44.6453	9.7452	-137.256	-64.8263	15.31	-137.073	-53.8756	52.4263	-166.259	-65.9414	23.8196	-140.195	-69.5861	39.804	-145.986	-51.6378	66.0197	-193.042	-30.2871	66.9741	-193.791	-32.6857	97.6676	-168.933	-6.76537	86.7524	
17	0.141667	-124.847	-23.9975	91.3548	-113.605	-29.472	57.2484	-118.172	-32.1637	20.6774	-128.583	-36.9229	-5.69333	-140.626	13.8782	23.0804	-134.653	16.9017	-6.85854	-129.189	22.6294	-30.8009	-165.774	-7.38275	4.43044	-157.384	-12.5382	-23.3097	-150.5	-24.7864	-56.9553	-166.802	-42.6615	7.98445	-142.893	-62.5601	9.15591	-134.33	-53.2499	45.8652	-171.393	-59.6134	22.9546	-142.844	-67.6298	41.7041	-149.182	-50.5066	64.6687	-191.978	-24.3691	65.3839	-195.521	-32.5253	97.1816	-168.09	-8.30998	89.592	
18	0.15	-124.455	-26.5751	90.9259	-114.782	-31.1749	58.3525	-121.626	-30.881	17.2756	-136.536	-36.0897	-1.34935	-139.202	13.4037	25.6631	-131.147	20.1408	-1.28287	-128.461	25.349	-28.8363	-165.103	-1.93969	9.61436	-159.746	-9.48952	-25.4675	-154.452	-17.0815	-51.0639	-170.631	-36.5547	9.46015	-146.958	-62.0605	7.48234	-135.106	-59.601	44.7957	-175.279	-56.9118	23.2909	-146.033	-62.6652	40.2652	-152.247	-45.2268	63.1151	-190.951	-21.9261	68.6414	-196.382	-30.7878	101.57	-165.687	-11.032	91.6764	
19	0.158333	-126.546	-32.1411	91.7258	-112.588	-31.9561	56.0959	-122.212	-31.0014	20.4212	-137.343	-33.3253	-3.13445	-138.491	15.7342	23.2873	-130.142	20.3238	3.12778	-125.067	27.3447	-26.0039	-163.738	0.619235	8.12731	-155.178	-2.93961	-20.3805	-153.747	-11.2772	-50.0147	-171.531	-36.0465	7.45162	-151.18	-56.866	4.76502	-136.07	-63.8478	40.6676	-180.666	-54.2222	23.5274	-150.639	-63.6588	37.8623	-156.453	-43.9995	63.9932	-192.346	-17.1652	68.2637	-193.33	-31.7644	103.8	-159.696	-8.90611	95.7359	
20	0.166667	-128.165	-37.0191	93.7295	-115.114	-33.1148	54.5111	-124.085	-29.6083	18.3663	-141.274	-31.131	-4.00979	-136.94	14.1747	29.8743	-128.625	21.9014	1.19474	-121.926	29.8809	-25.5451	-164.586	0.573681	12.6612	-154.847	-0.532011	-17.5935	-152.84	-7.05955	-50.5333	-173.414	-31.9976	10.8101	-152.109	-59.9694	6.03907	-138.077	-65.4928	37.206	-181.673	-51.4529	23.7474	-152.911	-61.0705	37.1399	-154.915	-39.9668	61.6054	-191.369	-18.4346	69.6862	-193.25	-29.3432	101.23	-162.428	-9.73248	92.9045	
21	0.175	-127.437	-35.5466	91.4047	-115.188	-37.6294	58.6188	-123.351	-31.673	19.9409	-139.14	-34.0034	0.438558	-134.002	14.5839	28.8905	-123.664	21.9627	5.94388	-117.782	29.9645	-19.6937	-159.591	4.38306	10.8392	-156.669	-0.46482	-19.7549	-153.054	-4.30758	-48.2075	-173.703	-29.4562	11.8432	-153.026	-57.1903	5.49629	-141.144	-67.9329	36.6149	-180	-49.6581	22.181	-152.111	-57.6608	37.2308	-155.76	-41.2421	61.6485	-191.266	-16.2454	69.7685	-195.132	-30.5566	104.334	-161.162	-11.5806	95.239	
22	0.183333	-127.699	-39.3312	92.7493	-118.43	-36.3414	55.2607	-125.37	-32.3129	18.6759	-142.975	-31.7309	-4.186	-131.816	13.9412	33.5811	-123.616	21.0277	6.84553	-117.778	27.6799	-18.8638	-159.963	4.19271	13.6587	-160.139	-0.730592	-15.4366	-155.908	-4.40178	-51.3943	-172.004	-26.3189	13.5248	-157.735	-56.1073	4.31606	-141.24	-65.972	35.5122	-183.394	-50.2081	22.8875	-154.785	-59.0625	38.3657	-156.817	-42.8628	64.1333	-194.224	-15.8561	70.577	-196.789	-28.4444	106.509	-160.282	-10.6908	96.9422	
